<svg width="12" height="12" viewBox="0 0 12 12" fill="none" xmlns="http://www.w3.org/2000/svg">
<path d="M10.4297 6.82031C10.5234 6.28125 10.5234 5.74219 10.4297 5.17969L11.4141 4.59375C11.4609 4.57031 11.5078 4.52344 11.5312 4.45312C11.5547 4.40625 11.5547 4.33594 11.5547 4.26562C11.2734 3.44531 10.8516 2.71875 10.2656 2.0625C10.2188 2.01562 10.1484 1.99219 10.1016 1.96875C10.0312 1.96875 9.96094 1.96875 9.91406 1.99219L8.92969 2.57812C8.50781 2.22656 8.01562 1.94531 7.5 1.75781V0.609375C7.5 0.5625 7.47656 0.492188 7.42969 0.445312C7.38281 0.398438 7.33594 0.351562 7.28906 0.328125C6.42188 0.140625 5.55469 0.140625 4.71094 0.328125C4.64062 0.351562 4.59375 0.398438 4.54688 0.445312C4.5 0.492188 4.5 0.5625 4.5 0.609375V1.75781C3.96094 1.94531 3.49219 2.22656 3.07031 2.57812L2.08594 1.99219C2.01562 1.96875 1.94531 1.96875 1.89844 1.96875C1.82812 1.99219 1.78125 2.01562 1.73438 2.0625C1.125 2.71875 0.703125 3.44531 0.445312 4.26562C0.421875 4.33594 0.421875 4.40625 0.445312 4.45312C0.46875 4.52344 0.515625 4.57031 0.585938 4.59375L1.57031 5.17969C1.47656 5.74219 1.47656 6.28125 1.57031 6.82031L0.585938 7.40625C0.515625 7.45312 0.46875 7.5 0.445312 7.54688C0.421875 7.61719 0.421875 7.6875 0.445312 7.73438C0.703125 8.57812 1.125 9.30469 1.73438 9.9375C1.78125 9.98438 1.82812 10.0312 1.89844 10.0312C1.94531 10.0547 2.01562 10.0547 2.08594 10.0078L3.07031 9.42188C3.49219 9.79688 3.96094 10.0547 4.5 10.2422V11.3906C4.5 11.4609 4.5 11.5312 4.54688 11.5781C4.59375 11.625 4.64062 11.6719 4.71094 11.6719C5.55469 11.8594 6.42188 11.8594 7.28906 11.6719C7.33594 11.6719 7.38281 11.625 7.42969 11.5781C7.47656 11.5312 7.5 11.4609 7.5 11.3906V10.2422C8.01562 10.0547 8.50781 9.79688 8.92969 9.42188L9.91406 10.0078C9.96094 10.0547 10.0312 10.0547 10.1016 10.0312C10.1484 10.0312 10.2188 9.98438 10.2656 9.9375C10.8516 9.30469 11.2734 8.57812 11.5547 7.73438C11.5547 7.6875 11.5547 7.61719 11.5312 7.54688C11.5078 7.5 11.4609 7.45312 11.4141 7.40625L10.4297 6.82031ZM7.875 6C7.875 6.51562 7.6875 6.96094 7.3125 7.33594C6.9375 7.71094 6.51562 7.875 6 7.875C5.48438 7.875 5.03906 7.71094 4.66406 7.33594C4.28906 6.96094 4.125 6.51562 4.125 6C4.125 5.48438 4.28906 5.0625 4.66406 4.6875C5.03906 4.3125 5.48438 4.125 6 4.125C6.51562 4.125 6.9375 4.3125 7.3125 4.6875C7.6875 5.0625 7.875 5.48438 7.875 6Z" fill="#999999"/>
</svg>
