<svg width="12" height="11" viewBox="0 0 12 11" fill="none" xmlns="http://www.w3.org/2000/svg">
<path d="M11.25 0.523438C11.25 0.445312 11.2109 0.386719 11.1719 0.328125C11.1133 0.289062 11.0547 0.25 10.9766 0.25H7.77344C7.69531 0.25 7.61719 0.289062 7.57812 0.347656C7.51953 0.40625 7.5 0.464844 7.5 0.542969V1.1875C7.5 1.26562 7.51953 1.34375 7.57812 1.38281C7.63672 1.44141 7.71484 1.46094 7.79297 1.46094L9.21875 1.42188L9.25781 1.46094L3.82812 6.89062C3.76953 6.94922 3.75 7.00781 3.75 7.06641C3.75 7.14453 3.76953 7.18359 3.82812 7.22266L4.27734 7.67188C4.31641 7.73047 4.35547 7.75 4.43359 7.75C4.49219 7.75 4.55078 7.73047 4.60938 7.67188L10.0391 2.24219L10.0781 2.28125L10.0391 3.70703C10.0391 3.78516 10.0586 3.86328 10.1172 3.92188C10.1562 3.98047 10.2344 4 10.3125 4H10.957C11.0352 4 11.0938 3.98047 11.1523 3.92188C11.2109 3.88281 11.25 3.80469 11.25 3.72656V0.523438ZM8.35938 4.82031C8.41797 4.74219 8.49609 4.72266 8.59375 4.76172C8.69141 4.80078 8.75 4.87891 8.75 4.97656V9.3125C8.75 9.58594 8.65234 9.80078 8.47656 9.97656C8.28125 10.1719 8.06641 10.25 7.8125 10.25H0.9375C0.664062 10.25 0.449219 10.1719 0.273438 9.97656C0.078125 9.80078 0 9.58594 0 9.3125V2.4375C0 2.18359 0.078125 1.96875 0.273438 1.77344C0.449219 1.59766 0.664062 1.5 0.9375 1.5H6.48438C6.54297 1.5 6.60156 1.53906 6.64062 1.57812L7.10938 2.04688C7.1875 2.125 7.20703 2.20312 7.16797 2.30078C7.12891 2.39844 7.05078 2.4375 6.95312 2.4375H1.05469C1.01562 2.4375 0.996094 2.45703 0.976562 2.47656C0.9375 2.51562 0.9375 2.53516 0.9375 2.55469V9.19531C0.9375 9.23438 0.9375 9.25391 0.976562 9.27344C0.996094 9.3125 1.01562 9.3125 1.05469 9.3125H7.69531C7.71484 9.3125 7.73438 9.3125 7.77344 9.27344C7.79297 9.25391 7.8125 9.23438 7.8125 9.19531V5.44531C7.8125 5.38672 7.83203 5.32812 7.89062 5.28906L8.35938 4.82031Z" fill="white"/>
</svg>
