<svg width="20" height="20" viewBox="0 0 20 20" fill="none" xmlns="http://www.w3.org/2000/svg">
<rect width="20" height="20" rx="10" fill="#B55F54"/>
<path d="M10.5674 12.1904H9.42578L9.33691 5.04688H10.6631L10.5674 12.1904ZM9.28906 14.3643C9.28906 14.1592 9.35059 13.9883 9.47363 13.8516C9.60124 13.7103 9.78809 13.6396 10.0342 13.6396C10.2803 13.6396 10.4671 13.7103 10.5947 13.8516C10.7223 13.9883 10.7861 14.1592 10.7861 14.3643C10.7861 14.5693 10.7223 14.7402 10.5947 14.877C10.4671 15.0091 10.2803 15.0752 10.0342 15.0752C9.78809 15.0752 9.60124 15.0091 9.47363 14.877C9.35059 14.7402 9.28906 14.5693 9.28906 14.3643Z" fill="white"/>
</svg>
