<?xml version="1.0" ?><!DOCTYPE svg  PUBLIC '-//W3C//DTD SVG 1.1//EN'  'http://www.w3.org/Graphics/SVG/1.1/DTD/svg11.dtd'><svg enable-background="new 0 0 64 64" height="64px" id="Layer_1" version="1.1" viewBox="0 0 64 64" width="64px" xml:space="preserve" xmlns="http://www.w3.org/2000/svg" xmlns:xlink="http://www.w3.org/1999/xlink" fill="#fff"><path d="M61.125,32.125h-9.5c-0.028,0-0.055,0.007-0.083,0.008c-0.053,0.003-0.105,0.007-0.158,0.016  c-0.047,0.007-0.093,0.018-0.139,0.03c-0.048,0.012-0.095,0.026-0.142,0.044c-0.045,0.017-0.088,0.035-0.13,0.056  c-0.045,0.021-0.089,0.045-0.131,0.071c-0.041,0.025-0.079,0.052-0.117,0.081c-0.039,0.029-0.077,0.06-0.113,0.094  c-0.038,0.035-0.072,0.072-0.106,0.111c-0.02,0.022-0.042,0.039-0.061,0.063l-3.91,4.977l-4.772-11.62  c-0.015-0.035-0.036-0.065-0.053-0.098c-0.024-0.049-0.047-0.098-0.076-0.144c-0.028-0.043-0.061-0.081-0.092-0.12  c-0.029-0.037-0.057-0.074-0.089-0.107c-0.039-0.041-0.082-0.075-0.125-0.11c-0.032-0.026-0.062-0.055-0.096-0.079  c-0.055-0.038-0.112-0.067-0.17-0.098c-0.025-0.013-0.047-0.03-0.073-0.042c-0.005-0.002-0.01-0.003-0.015-0.005  c-0.059-0.025-0.12-0.043-0.182-0.061c-0.035-0.01-0.069-0.024-0.104-0.032c-0.042-0.009-0.085-0.01-0.128-0.016  c-0.055-0.007-0.109-0.017-0.164-0.018c-0.026,0-0.054,0.005-0.08,0.006c-0.071,0.002-0.142,0.006-0.211,0.019  c-0.026,0.005-0.052,0.015-0.078,0.021c-0.07,0.017-0.14,0.035-0.206,0.061c-0.006,0.002-0.011,0.002-0.017,0.005  c-0.029,0.012-0.054,0.03-0.082,0.044c-0.056,0.027-0.111,0.053-0.163,0.087c-0.037,0.024-0.069,0.053-0.104,0.08  c-0.042,0.033-0.084,0.064-0.123,0.102c-0.035,0.034-0.064,0.071-0.095,0.108c-0.032,0.038-0.065,0.073-0.094,0.114  c-0.032,0.046-0.057,0.096-0.084,0.146c-0.017,0.031-0.038,0.059-0.053,0.092l-6.283,13.986l-7.951-20.416  c-0.013-0.034-0.034-0.063-0.049-0.096c-0.024-0.052-0.047-0.104-0.078-0.152c-0.026-0.041-0.056-0.077-0.085-0.115  c-0.03-0.04-0.059-0.081-0.094-0.118c-0.039-0.041-0.082-0.075-0.124-0.111c-0.028-0.024-0.052-0.052-0.083-0.075  c-0.005-0.004-0.012-0.006-0.017-0.01c-0.044-0.032-0.092-0.056-0.14-0.082c-0.04-0.022-0.079-0.049-0.12-0.067  c-0.031-0.014-0.065-0.021-0.097-0.033c-0.06-0.021-0.118-0.045-0.179-0.059c-0.021-0.004-0.042-0.004-0.062-0.008  c-0.074-0.014-0.148-0.026-0.223-0.028c-0.027-0.001-0.055,0.004-0.083,0.005c-0.07,0.001-0.139,0.003-0.208,0.015  c-0.027,0.004-0.054,0.015-0.081,0.021c-0.07,0.016-0.139,0.032-0.207,0.057c-0.004,0.002-0.009,0.002-0.014,0.004  c-0.027,0.01-0.05,0.027-0.076,0.039c-0.06,0.027-0.12,0.055-0.176,0.09c-0.038,0.023-0.07,0.052-0.105,0.078  c-0.042,0.032-0.085,0.063-0.125,0.1c-0.042,0.04-0.079,0.085-0.116,0.129c-0.022,0.026-0.048,0.048-0.069,0.077l-9.051,12.385  H2.875c-0.829,0-1.5,0.671-1.5,1.5c0,0.828,0.671,1.5,1.5,1.5h11c0.112,0,0.22-0.015,0.325-0.037  c0.029-0.007,0.056-0.019,0.084-0.026c0.076-0.021,0.15-0.047,0.221-0.079c0.035-0.017,0.067-0.036,0.101-0.056  c0.062-0.034,0.122-0.072,0.178-0.116c0.031-0.023,0.062-0.048,0.092-0.075c0.06-0.055,0.115-0.114,0.166-0.178  c0.014-0.018,0.032-0.029,0.045-0.048l7.885-10.789l8.256,21.198c0.002,0.006,0.007,0.011,0.009,0.017  c0.049,0.121,0.117,0.232,0.196,0.338c0.018,0.023,0.034,0.048,0.053,0.07c0.083,0.099,0.179,0.188,0.288,0.264  c0.02,0.013,0.041,0.021,0.061,0.034c0.057,0.036,0.113,0.073,0.176,0.102c0.039,0.018,0.08,0.025,0.119,0.039  c0.035,0.013,0.069,0.024,0.104,0.034c0.129,0.035,0.26,0.059,0.39,0.059c0,0,0,0,0.001,0c0,0,0,0,0,0  c0.124,0,0.249-0.021,0.373-0.054c0.029-0.008,0.058-0.016,0.087-0.024c0.027-0.01,0.057-0.014,0.084-0.024  c0.085-0.033,0.163-0.075,0.238-0.122c0.009-0.005,0.018-0.008,0.026-0.013c0.108-0.069,0.202-0.154,0.287-0.247  c0.022-0.023,0.042-0.048,0.062-0.072c0.08-0.098,0.149-0.202,0.202-0.315c0.002-0.005,0.007-0.009,0.009-0.014l0.005-0.011  c0,0,0,0,0-0.001l6.315-14.055l4.424,10.772c0.007,0.016,0.019,0.027,0.026,0.043c0.052,0.117,0.116,0.229,0.199,0.331  c0.004,0.006,0.008,0.013,0.013,0.019c0.065,0.078,0.14,0.151,0.223,0.217c0.016,0.013,0.034,0.016,0.051,0.027  c0.088,0.064,0.185,0.111,0.284,0.154c0.046,0.021,0.089,0.049,0.137,0.064c0.141,0.045,0.287,0.069,0.438,0.071  c0.006,0,0.011,0.003,0.017,0.003h0.001h0.001c0.103,0,0.205-0.013,0.309-0.034c0.035-0.008,0.067-0.021,0.103-0.03  c0.053-0.016,0.106-0.026,0.158-0.048c0.014-0.006,0.024-0.015,0.038-0.021c0.039-0.018,0.076-0.04,0.114-0.061  c0.058-0.032,0.114-0.065,0.166-0.104c0.033-0.024,0.063-0.051,0.094-0.078c0.055-0.047,0.104-0.097,0.15-0.15  c0.015-0.018,0.033-0.03,0.047-0.048l5.05-6.427h8.771c0.828,0,1.5-0.672,1.5-1.5C62.625,32.796,61.953,32.125,61.125,32.125z"/></svg>