<svg width="214" height="70" viewBox="0 0 214 70" fill="none" xmlns="http://www.w3.org/2000/svg">
<path d="M97.4961 9.71582V34.4821H100.179V9.71582H97.4961Z" fill="white"/>
<path d="M107.999 34.4821V23.406C107.999 20.2071 110.406 18.2464 112.952 18.2464C115.669 18.2464 117.252 19.7599 117.252 22.6149V34.4821H119.797V22.5461C119.797 18.4528 117.389 16.0794 113.537 16.0794C111.266 16.0794 109.099 17.1801 107.861 19.2783L107.551 16.5953H105.453V34.4821H107.999Z" fill="white"/>
<path d="M123.325 29.5632C123.669 32.831 126.421 34.998 130.755 34.998C135.33 34.998 137.979 32.5902 137.979 29.5288C137.979 26.1579 135.571 24.8507 131.168 23.9564C127.556 23.2341 126.593 22.4429 126.593 20.7574C126.593 19.3127 127.866 18.1088 130.652 18.1088C133.232 18.1088 134.917 19.3471 135.261 21.1702H137.875C137.325 18.04 134.573 16.0794 130.721 16.0794C126.283 16.0794 123.979 18.1432 123.979 20.9982C123.979 23.7156 125.939 25.2635 129.826 26.0547C133.472 26.777 135.364 27.4994 135.364 29.7008C135.364 31.4551 133.782 32.9342 130.789 32.9342C128.003 32.9342 126.283 31.7647 125.939 29.5632H123.325Z" fill="white"/>
<path d="M144.511 34.4821V16.5953H141.931V34.4821H144.511ZM144.683 12.9148V9.71582H141.759V12.9148H144.683Z" fill="white"/>
<path d="M149.251 35.9268C149.87 39.1945 152.553 41.1896 156.99 41.1896C161.978 41.1896 164.867 38.197 164.867 34.2413V16.5953H162.769L162.356 19.3471C161.221 17.4209 159.192 16.0794 156.337 16.0794C151.762 16.0794 148.46 19.4159 148.46 25.1259C148.46 30.8015 152.106 33.8973 156.199 33.8973C159.054 33.8973 161.118 32.7278 162.287 31.0079V34.1381C162.287 37.2339 160.361 39.1601 156.921 39.1601C154.204 39.1601 152.381 38.025 151.968 35.9268H149.251ZM151.108 25.1603C151.108 20.4479 153.55 18.2464 156.715 18.2464C160.052 18.2464 162.459 20.5511 162.459 25.1603C162.459 29.632 160.017 31.7303 156.749 31.7303C153.619 31.7303 151.108 29.3912 151.108 25.1603Z" fill="white"/>
<path d="M172.46 34.4821V23.5092C172.46 20.2415 174.834 18.2464 177.414 18.2464C180.131 18.2464 181.713 19.7599 181.713 22.6149V34.4821H184.259V22.5461C184.259 18.4528 181.851 16.0794 177.998 16.0794C175.797 16.0794 173.699 17.1113 172.46 19.1064V9.71582H169.915V34.4821H172.46Z" fill="white"/>
<path d="M196.455 18.7968V16.5953H192.431V12.2956H190.057L189.885 16.5953H187.271V18.7968H189.885V30.4575C189.885 33.2781 191.433 34.998 194.288 34.998C195.079 34.998 195.802 34.8948 196.662 34.654V32.487C195.698 32.7278 195.182 32.7622 194.563 32.7622C193.222 32.7622 192.431 32.0398 192.431 30.5263V18.7968H196.455Z" fill="white"/>
<path d="M198.503 29.5632C198.847 32.831 201.598 34.998 205.932 34.998C210.507 34.998 213.156 32.5902 213.156 29.5288C213.156 26.1579 210.748 24.8507 206.345 23.9564C202.734 23.2341 201.77 22.4429 201.77 20.7574C201.77 19.3127 203.043 18.1088 205.829 18.1088C208.409 18.1088 210.095 19.3471 210.439 21.1702H213.053C212.502 18.04 209.751 16.0794 205.898 16.0794C201.461 16.0794 199.156 18.1432 199.156 20.9982C199.156 23.7156 201.117 25.2635 205.004 26.0547C208.65 26.777 210.542 27.4994 210.542 29.7008C210.542 31.4551 208.959 32.9342 205.967 32.9342C203.181 32.9342 201.461 31.7647 201.117 29.5632H198.503Z" fill="white"/>
<path fill-rule="evenodd" clip-rule="evenodd" d="M68.1705 41.8971L68.1681 41.9009H18.459L18.4567 41.8971C15.875 41.8526 8.82003 41.3395 9.05785 36.0197L8.36235 28.8978C8.36235 24.7582 6.6709 23.1558 4.17825 22.3101C6.6709 21.4643 8.36235 19.8619 8.36235 15.7223L9.05785 8.60044C8.82003 2.77008 15.8734 2.71678 18.4551 2.67114L18.4534 2.67377L68.2449 2.67373C70.8255 2.76895 77.0583 2.77008 77.5693 8.60044L78.2648 15.7223C78.2648 19.8619 79.9563 21.4643 82.4489 22.3101C79.9563 23.1558 78.2648 24.7582 78.2648 28.8978L77.5693 36.0197C77.0583 41.3395 70.7522 41.8526 68.1705 41.8971Z" fill="#222222"/>
<path fill-rule="evenodd" clip-rule="evenodd" d="M0.493075 22.8469C0.223094 22.8032 0 22.5843 0 22.3108C0 22.0373 0.223094 21.8183 0.493075 21.7747C2.97617 21.3736 5.82549 18.1065 5.82549 15.8121L6.52099 8.82372C6.52099 1.43474 13.6484 0.5 19.8356 0.5L66.7683 0.501443C72.9555 0.501443 80.082 1.43474 80.082 8.82372L80.7775 15.8121C80.7775 18.1065 83.6268 21.3736 86.1099 21.7747C86.3799 21.8183 86.603 22.0373 86.603 22.3108C86.603 22.5843 86.3799 22.8032 86.1099 22.8469C83.6268 23.248 80.7775 26.515 80.7775 28.8095L80.082 35.7979C80.082 42.7444 74.0793 45.3001 61.9534 44.1103L65.1218 47.2788C65.8511 47.4798 66.5399 47.8669 67.113 48.44L83.4025 64.7295C85.1679 66.495 85.1679 66.3905 83.4025 68.1559C81.637 69.9214 81.7415 69.9214 79.9761 68.1559L63.6866 51.8664C63.0102 51.19 62.5929 50.3526 62.4348 49.4775L58.2574 45.3001C58.0392 45.0818 57.7223 44.8437 57.3867 44.5916C57.1742 44.4319 56.9542 44.2666 56.747 44.0972L19.8356 44.1216L19.7664 44.1215L19.731 44.1215C13.5684 44.1109 6.52099 43.1452 6.52099 35.7979L5.82549 28.8095C5.82549 26.515 2.97617 23.248 0.493075 22.8469ZM68.1584 41.8979L68.156 41.9016H18.4469L18.4446 41.8979C15.8629 41.8533 8.80793 41.3403 9.04575 36.0204L8.35025 28.8986C8.35025 24.7589 6.6588 23.1565 4.16615 22.3108C6.6588 21.465 8.35025 19.8627 8.35025 15.723L9.04575 8.60116C8.80793 2.77079 15.8613 2.71749 18.443 2.67186L18.4413 2.67449L68.2328 2.67445C70.8134 2.76966 77.0462 2.77079 77.5572 8.60116L78.2527 15.723C78.2527 19.8627 79.9442 21.465 82.4369 22.3108C79.9442 23.1565 78.2527 24.7589 78.2527 28.8986L77.5572 36.0204C77.0462 41.3403 70.7401 41.8533 68.1584 41.8979Z" fill="#7ADF2B"/>
<path fill-rule="evenodd" clip-rule="evenodd" d="M33.4561 13.2693L39.557 30.295H35.3715L34.1655 26.3933H28.1118L26.9059 30.295H22.9805L29.0341 13.2693H33.4561ZM33.3851 23.7922L31.1623 16.5325L28.9158 23.7922H33.3851Z" fill="white"/>
<path fill-rule="evenodd" clip-rule="evenodd" d="M40.9798 13.2693V30.295H44.9525V24.5962H47.2699C52.0939 24.5962 54.4822 22.8463 54.4822 18.9445C54.4822 15.1137 52.3067 13.2693 47.128 13.2693H40.9798ZM47.1753 15.9887C49.2563 15.9887 50.3913 16.8399 50.3913 18.9445C50.3913 20.8836 49.3035 21.8767 47.3172 21.8767H44.9525V15.9887H47.1753Z" fill="white"/>
<path d="M56.729 30.295V13.2693H60.7017V30.295H56.729Z" fill="white"/>
</svg>
